<?xml version="1.0" encoding="UTF-8" standalone="no"?>
<svg
   xmlns:dc="http://purl.org/dc/elements/1.1/"
   xmlns:cc="http://creativecommons.org/ns#"
   xmlns:rdf="http://www.w3.org/1999/02/22-rdf-syntax-ns#"
   xmlns:svg="http://www.w3.org/2000/svg"
   xmlns="http://www.w3.org/2000/svg"
   xmlns:sodipodi="http://sodipodi.sourceforge.net/DTD/sodipodi-0.dtd"
   xmlns:inkscape="http://www.inkscape.org/namespaces/inkscape"
   version="1.0"
   width="2447.9443pt"
   height="816pt"
   viewBox="0 0 2447.9443 408"
   preserveAspectRatio="xMidYMid meet"
   id="svg12"
   sodipodi:docname="ayy.svg"
   inkscape:version="0.92.3 (2405546, 2018-03-11)">
  <defs
     id="defs16" />
  <sodipodi:namedview
     pagecolor="#ffffff"
     bordercolor="#666666"
     borderopacity="1"
     objecttolerance="10"
     gridtolerance="10"
     guidetolerance="10"
     inkscape:pageopacity="0"
     inkscape:pageshadow="2"
     inkscape:window-width="1920"
     inkscape:window-height="1137"
     id="namedview14"
     showgrid="false"
     fit-margin-top="0"
     fit-margin-left="0"
     fit-margin-right="0"
     fit-margin-bottom="0"
     inkscape:zoom="0.07195122"
     inkscape:cx="1631.3924"
     inkscape:cy="816.00006"
     inkscape:window-x="1912"
     inkscape:window-y="-8"
     inkscape:window-maximized="1"
     inkscape:current-layer="svg12" />
  <metadata
     id="metadata2">
Created by potrace 1.11, written by Peter Selinger 2001-2013
<rdf:RDF>
  <cc:Work
     rdf:about="">
    <dc:format>image/svg+xml</dc:format>
    <dc:type
       rdf:resource="http://purl.org/dc/dcmitype/StillImage" />
    <dc:title></dc:title>
  </cc:Work>
</rdf:RDF>
</metadata>
  <g
     transform="matrix(0.1,0,0,-0.1,-6.4556641,1434)"
     id="g10"
     style="fill:#000000;stroke:none">
    <path
       d="m 3907,16374 c -2,-2 -39,-6 -83,-8 -43,-3 -97,-7 -119,-10 -22,-3 -64,-8 -94,-11 -29,-4 -63,-8 -75,-11 -11,-2 -39,-6 -61,-9 -22,-4 -51,-8 -65,-11 -14,-2 -34,-6 -45,-8 -11,-2 -31,-6 -45,-10 -14,-3 -36,-8 -50,-10 -14,-2 -54,-12 -90,-21 -36,-8 -72,-17 -80,-19 -172,-41 -466,-147 -663,-240 -55,-25 -103,-46 -108,-46 -5,0 -9,-4 -9,-10 0,-5 -6,-10 -14,-10 -13,0 -84,-36 -136,-69 -14,-8 -27,-16 -30,-16 -10,-1 -240,-143 -266,-164 -6,-5 -30,-21 -55,-36 -24,-16 -46,-31 -49,-34 -3,-4 -29,-24 -59,-45 -58,-41 -72,-52 -99,-77 -9,-8 -37,-31 -62,-50 -169,-129 -411,-373 -585,-589 -20,-25 -42,-52 -48,-60 -24,-29 -122,-165 -152,-210 -17,-25 -33,-46 -37,-48 -5,-2 -8,-8 -8,-14 0,-5 -13,-28 -29,-51 -16,-23 -29,-46 -29,-51 0,-5 -4,-12 -9,-15 -13,-9 -133,-222 -133,-237 0,-7 -3,-14 -7,-16 -10,-4 -63,-111 -63,-126 0,-7 -4,-12 -9,-12 -5,0 -12,-11 -15,-24 -3,-14 -20,-55 -37,-92 -17,-37 -32,-72 -34,-78 -1,-6 -6,-20 -10,-31 -90,-222 -179,-530 -209,-721 -4,-22 -11,-55 -16,-74 -4,-19 -11,-62 -15,-95 -3,-33 -8,-71 -10,-85 -26,-142 -40,-629 -23,-825 9,-100 17,-174 23,-220 3,-22 8,-58 11,-80 5,-42 10,-74 19,-115 3,-14 7,-42 10,-62 2,-21 6,-42 9,-47 4,-5 8,-22 11,-38 2,-15 8,-46 14,-68 5,-22 12,-51 15,-65 8,-38 52,-189 70,-240 9,-25 16,-53 16,-62 0,-10 5,-18 12,-18 6,0 9,-3 6,-6 -4,-3 0,-20 7,-39 8,-18 11,-35 8,-39 -4,-3 -1,-6 5,-6 7,0 11,-3 9,-8 -2,-7 25,-77 44,-114 5,-10 9,-22 9,-27 0,-21 212,-455 231,-471 3,-3 21,-32 39,-65 19,-33 38,-64 42,-70 5,-5 31,-46 59,-90 29,-44 54,-82 58,-85 3,-3 26,-34 51,-70 24,-35 51,-72 60,-81 8,-9 26,-32 40,-50 14,-18 33,-41 42,-51 10,-10 18,-20 18,-23 0,-2 10,-15 22,-28 13,-13 58,-62 100,-109 163,-179 297,-304 488,-455 124,-98 303,-223 320,-223 5,0 10,-4 10,-9 0,-5 14,-14 30,-21 16,-7 30,-16 30,-20 0,-4 8,-10 18,-13 9,-4 37,-18 62,-33 65,-38 263,-145 275,-148 6,-1 37,-15 70,-31 33,-15 80,-36 105,-47 25,-11 54,-24 65,-28 49,-22 293,-109 319,-115 11,-3 40,-11 66,-20 26,-9 55,-18 66,-20 10,-3 55,-13 99,-24 44,-11 83,-17 87,-15 3,2 9,0 12,-5 3,-5 27,-12 53,-16 27,-5 55,-10 63,-12 8,-1 29,-5 45,-8 17,-2 41,-7 55,-9 72,-14 128,-21 235,-31 28,-3 82,-8 120,-12 149,-15 617,-8 765,12 19,3 55,7 80,10 25,3 72,10 105,16 33,5 74,12 90,14 29,4 102,19 155,31 14,3 34,7 45,9 17,4 63,16 115,30 8,2 42,11 75,20 33,8 67,18 75,21 8,3 15,5 15,4 0,0 53,18 119,40 157,54 307,116 438,180 31,16 59,26 62,22 3,-3 6,-1 6,5 0,6 26,22 58,37 31,15 73,36 92,48 19,11 55,32 80,46 25,14 64,38 87,53 23,16 44,29 47,29 3,0 60,38 127,85 66,47 122,85 124,85 2,0 3,-170 4,-377 0,-208 0,-390 0,-405 l 1,-28 h 816 816 l -2,33 c -1,17 -1,37 0,42 1,10 1,47 -1,198 -1,43 0,80 2,82 2,2 2,47 -1,100 -3,53 -3,98 -1,101 2,2 3,30 3,61 -4,145 -4,214 -1,218 2,2 2,47 -1,100 -3,53 -3,98 -1,101 2,2 3,30 3,61 -4,145 -4,214 -1,218 2,2 2,47 -1,100 -3,53 -3,98 -1,101 2,2 3,30 2,61 -1,32 -1,69 -1,83 1,14 1,31 1,38 -1,6 -1,19 -1,27 0,8 0,22 0,30 0,8 0,23 -1,33 0,9 0,90 0,179 1,90 1,166 0,170 -1,5 -1,13 1,18 3,17 1,109 -3,130 -3,11 -2,24 1,29 3,5 4,34 4,65 -4,141 -4,212 -1,216 2,2 2,47 -1,100 -3,53 -3,98 -1,101 2,2 3,30 2,61 -1,32 -1,69 -1,83 1,14 1,31 1,38 -1,6 -1,19 -1,27 0,8 0,22 0,30 0,8 0,23 -1,33 0,9 0,90 0,179 1,90 1,166 0,170 -1,5 -1,13 1,18 1,6 1,35 1,65 -1,141 -1,406 -1,415 1,10 1,60 -1,198 -1,43 0,80 2,82 2,2 2,47 -1,100 -3,53 -3,98 -1,101 2,2 3,30 3,61 -4,145 -4,214 -1,218 2,2 2,67 -1,145 -3,78 -3,143 0,145 3,2 3,74 0,160 -3,86 -3,158 0,160 3,2 3,125 0,275 -3,149 -3,273 -1,276 2,2 3,30 3,61 -4,145 -4,214 -1,218 2,2 2,47 -1,100 -3,53 -3,98 -1,101 2,2 3,30 3,61 -4,145 -4,214 -1,218 2,2 2,67 -1,145 -3,78 -3,143 0,145 3,2 3,74 0,160 -3,86 -3,158 0,160 3,2 3,125 0,275 -3,149 -3,273 -1,276 2,2 3,30 3,61 -4,145 -4,214 -1,218 2,2 2,31 1,64 l -4,61 h -814 -814 l -1,-27 c 0,-16 0,-198 -1,-405 0,-208 -2,-378 -5,-378 -3,0 -35,22 -72,48 -120,89 -313,212 -331,212 -5,0 -10,3 -12,8 -1,4 -23,18 -48,31 -190,99 -250,128 -255,123 -3,-3 -5,0 -5,6 0,7 -5,12 -11,12 -5,0 -56,20 -112,44 -97,41 -136,57 -147,58 -3,0 -30,11 -60,25 -30,13 -56,24 -58,23 -1,0 -33,9 -70,20 -163,52 -351,101 -427,113 -16,3 -37,8 -45,11 -8,3 -33,8 -55,11 -22,3 -51,7 -65,9 -70,12 -181,28 -225,32 -27,2 -68,6 -90,9 -47,6 -582,14 -588,9 z m 413,-1638 c 105,-7 214,-21 250,-31 8,-2 32,-6 52,-9 21,-3 73,-15 115,-27 43,-11 85,-22 93,-24 93,-21 467,-177 490,-204 3,-3 19,-13 35,-21 43,-21 109,-64 113,-72 2,-5 8,-8 14,-8 13,0 219,-154 278,-209 25,-22 49,-41 53,-41 5,0 5,-4 2,-10 -3,-5 -2,-10 3,-10 13,0 114,-103 198,-202 36,-43 174,-228 174,-234 0,-3 10,-20 23,-37 27,-38 34,-51 72,-124 16,-32 36,-69 45,-83 16,-26 90,-194 90,-205 0,-4 6,-21 14,-38 29,-66 87,-264 101,-347 3,-19 8,-42 10,-50 5,-20 16,-87 20,-125 15,-136 18,-189 18,-325 1,-139 -5,-248 -18,-335 -13,-92 -18,-119 -41,-217 -24,-109 -67,-256 -84,-293 -5,-11 -19,-44 -30,-74 -56,-146 -212,-431 -267,-489 -7,-7 -13,-17 -13,-21 0,-4 -8,-16 -17,-27 -10,-11 -33,-40 -52,-64 -53,-69 -52,-68 -177,-195 -133,-134 -185,-182 -229,-211 -17,-10 -34,-24 -40,-30 -14,-15 -111,-84 -119,-84 -4,0 -14,-6 -22,-12 -8,-7 -20,-18 -27,-23 -7,-6 -38,-24 -69,-40 -32,-17 -58,-33 -58,-37 0,-5 -9,-8 -19,-8 -11,0 -21,-3 -23,-7 -4,-11 -90,-53 -105,-53 -7,0 -13,-3 -13,-8 0,-4 -15,-12 -32,-19 -18,-6 -78,-28 -133,-48 -118,-44 -127,-47 -140,-50 -5,-2 -30,-9 -55,-16 -56,-16 -45,-13 -115,-29 -77,-17 -84,-19 -120,-24 -36,-6 -92,-14 -142,-22 -80,-12 -353,-18 -453,-10 -62,5 -171,17 -195,22 -10,2 -37,6 -60,10 -22,3 -44,7 -50,8 -23,6 -81,17 -97,20 -10,1 -21,5 -24,9 -4,4 -15,7 -23,7 -23,0 -210,61 -306,99 -167,67 -417,210 -545,311 -25,19 -49,38 -55,42 -86,64 -299,275 -384,382 -63,80 -162,222 -203,293 -44,78 -128,245 -128,257 0,6 -5,17 -12,24 -6,6 -13,20 -14,29 -2,9 -8,26 -13,38 -30,58 -113,346 -127,439 -3,17 -7,45 -10,61 -19,109 -25,193 -27,370 -2,139 2,212 17,350 3,25 25,149 40,220 19,90 91,320 107,341 5,6 10,19 12,30 2,10 18,51 36,89 18,39 32,71 32,72 0,5 92,168 98,173 3,3 15,22 25,43 18,34 29,51 66,94 5,7 10,15 10,17 0,7 55,80 114,151 49,60 137,155 190,204 21,20 50,47 65,61 46,43 121,104 221,177 14,11 50,34 80,53 30,19 57,37 60,40 3,3 19,12 35,20 17,8 32,17 35,20 10,10 217,110 228,110 7,0 12,5 12,11 0,5 4,8 8,5 4,-2 23,2 42,11 66,29 75,32 145,53 39,12 77,24 85,27 20,8 41,14 65,18 11,2 20,4 20,5 0,1 11,4 25,6 14,3 41,9 60,14 19,5 49,11 65,14 17,2 50,8 75,12 64,10 94,13 184,19 44,3 81,6 82,8 4,4 195,0 284,-7 z"
       id="path4"
       inkscape:connector-curvature="0" />
    <path
       d="m 9859,16368 c -4,-55 6,-292 16,-408 9,-101 15,-159 20,-190 3,-19 8,-60 11,-90 3,-30 8,-62 11,-70 3,-8 7,-28 9,-45 5,-29 22,-128 30,-173 3,-12 14,-62 25,-110 12,-48 22,-94 24,-102 2,-8 11,-42 20,-75 9,-33 20,-73 25,-90 4,-16 13,-43 20,-60 6,-16 11,-31 10,-33 -1,-1 11,-40 26,-85 16,-45 29,-84 29,-87 2,-12 18,-57 30,-85 12,-27 26,-62 30,-75 2,-7 24,-62 32,-80 3,-8 7,-17 8,-20 1,-5 20,-47 55,-125 48,-107 163,-333 212,-415 11,-19 28,-48 37,-65 9,-16 42,-69 74,-117 31,-48 57,-90 57,-93 0,-3 5,-11 11,-18 6,-7 40,-55 77,-107 70,-99 240,-316 301,-385 130,-143 390,-408 418,-423 6,-4 31,-25 55,-47 23,-22 79,-69 123,-105 44,-35 82,-67 85,-70 17,-18 177,-132 295,-210 50,-33 95,-64 100,-68 10,-8 94,-58 169,-101 22,-13 50,-29 61,-36 11,-7 22,-12 25,-11 3,0 19,-8 35,-20 30,-21 318,-164 330,-164 6,0 122,-52 157,-71 10,-5 24,-9 31,-9 8,0 29,-7 47,-17 37,-18 242,-91 279,-99 13,-3 32,-9 43,-15 10,-5 18,-7 18,-5 0,3 12,1 28,-5 15,-6 59,-20 97,-31 39,-10 77,-21 85,-23 8,-2 48,-11 89,-20 41,-9 78,-18 81,-20 4,-3 22,-6 41,-9 19,-2 45,-7 59,-10 27,-6 64,-13 120,-22 19,-3 42,-7 51,-10 8,-2 42,-6 75,-9 32,-3 66,-7 74,-10 40,-12 311,-32 530,-39 l 85,-3 1,-79 c 0,-43 -4,-101 -8,-129 -4,-27 -9,-62 -10,-77 -1,-16 -6,-28 -11,-28 -4,0 -6,-4 -2,-10 14,-22 -67,-262 -137,-403 -52,-106 -52,-107 -60,-107 -5,0 -8,-4 -8,-9 0,-11 -72,-121 -104,-159 -116,-138 -185,-206 -298,-293 -93,-72 -255,-172 -280,-174 -3,0 -10,-3 -14,-8 -4,-4 -16,-7 -26,-7 -10,0 -18,-4 -18,-8 0,-7 -29,-19 -90,-37 -3,-1 -18,-7 -35,-14 -16,-7 -70,-23 -120,-36 -144,-38 -225,-48 -395,-49 -114,-1 -234,7 -289,19 -11,3 -31,7 -43,10 -87,18 -126,28 -143,35 -11,4 -49,18 -85,30 -99,34 -264,116 -353,176 -119,80 -367,308 -367,337 0,5 -8,17 -18,26 -34,30 -131,187 -182,292 -45,95 -101,247 -114,310 -5,26 -12,58 -22,102 -8,40 -12,70 -19,167 -3,47 -8,94 -10,105 -4,20 -12,20 -815,20 -533,0 -810,-3 -811,-10 -4,-45 -3,-155 1,-155 3,0 6,-39 8,-88 1,-48 5,-98 8,-112 3,-14 7,-45 10,-70 3,-25 9,-67 14,-95 6,-27 12,-66 14,-85 3,-19 12,-62 20,-96 8,-34 17,-72 20,-85 3,-13 12,-49 21,-79 9,-30 17,-59 19,-65 6,-24 18,-62 25,-80 5,-11 14,-38 20,-60 7,-22 16,-49 21,-60 4,-11 18,-45 30,-75 64,-160 148,-328 228,-460 12,-19 25,-42 29,-50 4,-8 11,-19 15,-25 5,-5 19,-26 31,-45 55,-84 152,-217 167,-230 4,-3 13,-14 21,-26 69,-100 395,-427 494,-494 12,-8 29,-22 39,-30 30,-27 41,-35 78,-60 21,-14 38,-28 38,-32 0,-5 5,-8 10,-8 12,0 73,-41 78,-52 2,-5 8,-8 13,-8 6,0 37,-18 69,-40 32,-22 61,-40 63,-40 2,0 43,-22 91,-50 48,-28 93,-50 100,-50 8,0 19,-7 26,-15 7,-8 16,-15 21,-15 5,0 39,-14 76,-31 138,-63 340,-136 468,-169 28,-7 54,-15 60,-18 5,-3 18,-7 30,-8 11,-1 49,-10 85,-19 36,-8 81,-18 100,-20 19,-3 46,-7 60,-10 14,-3 45,-8 70,-11 25,-3 61,-7 80,-10 113,-14 209,-18 405,-18 205,0 270,4 385,19 25,4 61,8 80,10 19,2 45,6 56,9 12,2 38,7 59,10 20,4 69,14 108,23 40,9 78,16 85,16 6,0 12,3 12,6 0,3 11,7 25,7 14,1 33,5 43,9 9,5 22,9 27,10 8,2 87,25 105,30 3,1 18,7 34,14 16,6 36,13 45,15 9,2 30,8 46,15 17,6 44,17 60,23 99,37 300,132 400,188 86,48 160,94 163,102 2,4 8,6 13,2 5,-3 9,-1 9,4 0,5 14,15 30,22 17,7 30,15 30,19 0,3 21,19 48,36 26,16 49,32 52,35 3,3 34,28 70,55 195,149 436,390 583,584 31,42 66,87 77,101 11,14 20,31 20,38 0,7 5,10 10,7 6,-3 10,-2 10,4 0,6 28,54 63,108 34,54 69,112 79,128 21,39 132,258 133,265 1,3 13,30 27,62 14,31 29,67 33,80 4,12 13,37 20,53 20,46 74,207 79,235 2,14 5,25 6,25 2,0 3,4 35,135 14,58 28,120 31,139 3,18 8,43 10,55 3,11 7,41 10,66 2,25 6,56 9,70 9,55 14,109 20,195 3,49 8,91 10,94 3,2 0,10 -6,18 -6,7 -8,13 -3,13 5,0 9,1084 9,2500 v 2500 h -817 -816 v -1625 c 0,-893 -2,-1628 -5,-1632 -6,-10 -79,-9 -95,1 -7,4 -12,2 -12,-4 0,-6 -3,-9 -7,-7 -5,3 -53,8 -108,12 -102,7 -139,10 -210,21 -22,3 -51,7 -65,9 -14,2 -41,6 -60,10 -164,30 -165,30 -390,92 -30,8 -61,20 -69,26 -8,7 -15,10 -15,8 -1,-5 -95,25 -141,44 -65,27 -100,40 -107,37 -5,-1 -8,3 -8,8 0,6 -5,10 -10,10 -6,0 -30,9 -52,20 -23,11 -48,20 -55,20 -7,0 -13,3 -13,8 0,4 -24,18 -52,31 -29,13 -86,44 -126,68 -41,23 -75,43 -77,43 -3,0 -43,26 -91,58 -48,31 -95,61 -105,67 -11,5 -19,13 -19,17 0,5 -7,8 -15,8 -8,0 -15,3 -15,8 0,4 -17,18 -37,32 -21,14 -45,32 -54,40 -10,8 -24,20 -31,25 -62,47 -152,129 -254,230 -104,104 -146,150 -267,294 -11,14 -30,39 -41,55 -12,17 -39,56 -62,86 -46,63 -128,192 -169,265 -30,53 -146,278 -146,282 0,2 -9,24 -20,50 -11,27 -26,65 -32,86 -7,20 -16,37 -21,37 -4,0 -6,7 -2,15 3,8 1,15 -4,15 -6,0 -9,3 -8,8 1,4 -15,58 -35,120 -20,61 -39,120 -41,130 -1,9 -6,24 -9,32 -9,25 -46,192 -52,240 -4,24 -9,48 -11,52 -3,4 -7,29 -10,55 -3,26 -7,62 -9,78 -16,126 -22,212 -24,323 l -1,92 h -815 c -645,0 -815,-3 -816,-12 z"
       id="path6"
       inkscape:connector-curvature="0" />
    <path
       d="m 18019,16373 c -9,-57 24,-582 37,-604 2,-4 6,-37 10,-74 3,-37 8,-76 10,-88 7,-30 13,-62 25,-132 18,-100 20,-109 30,-150 5,-22 12,-53 15,-70 3,-16 7,-37 11,-45 4,-13 27,-99 52,-196 5,-18 11,-36 14,-41 3,-5 8,-20 11,-34 2,-13 16,-58 31,-99 14,-41 28,-82 30,-90 7,-28 40,-115 50,-130 5,-8 10,-22 12,-30 2,-13 11,-36 48,-125 14,-31 82,-182 113,-247 9,-21 20,-38 25,-38 4,0 7,-5 7,-12 0,-13 78,-169 89,-178 5,-4 24,-37 64,-111 13,-26 97,-157 128,-201 10,-15 19,-31 19,-37 0,-5 3,-11 8,-13 4,-2 41,-50 81,-108 41,-58 78,-107 81,-110 3,-3 22,-26 41,-51 34,-46 101,-128 129,-158 8,-9 38,-44 66,-76 98,-113 324,-336 457,-450 32,-28 69,-59 81,-70 12,-11 37,-31 56,-45 18,-14 38,-30 44,-35 6,-6 32,-26 59,-45 26,-18 47,-38 47,-43 0,-6 3,-8 6,-4 3,3 48,-26 100,-64 52,-38 94,-66 94,-62 0,5 4,3 8,-2 12,-17 140,-98 288,-182 125,-72 404,-213 419,-213 6,0 124,-53 157,-71 10,-5 24,-9 31,-9 7,0 33,-9 56,-21 24,-11 51,-22 60,-25 20,-5 161,-52 181,-61 8,-3 20,-7 25,-9 96,-28 139,-41 245,-68 142,-37 213,-54 253,-61 15,-3 39,-7 55,-10 15,-3 36,-7 47,-9 11,-2 36,-7 55,-11 44,-8 84,-14 135,-21 22,-2 54,-7 70,-9 93,-16 307,-31 535,-39 l 85,-3 v -79 c -1,-83 -13,-213 -22,-227 -3,-4 -6,-18 -8,-30 -4,-33 -26,-119 -35,-142 -5,-11 -20,-53 -34,-93 -14,-40 -50,-118 -78,-173 -29,-55 -57,-109 -63,-120 -5,-10 -13,-19 -17,-19 -5,0 -8,-4 -8,-10 0,-12 -98,-144 -111,-148 -5,-2 -9,-7 -9,-12 0,-15 -159,-170 -236,-230 -51,-40 -124,-90 -169,-116 -27,-15 -52,-31 -55,-34 -6,-6 -62,-33 -72,-34 -3,-1 -10,-4 -14,-9 -4,-4 -16,-7 -26,-7 -10,0 -18,-4 -18,-8 0,-7 -29,-19 -90,-37 -3,-1 -17,-7 -32,-13 -31,-13 -123,-40 -159,-47 -13,-3 -37,-8 -53,-11 -16,-2 -32,-7 -36,-9 -37,-23 -524,-23 -561,1 -5,3 -22,7 -38,9 -43,5 -169,41 -237,67 -32,12 -61,22 -64,23 -14,1 -206,100 -218,111 -7,8 -17,14 -22,14 -5,0 -53,33 -107,73 -109,82 -243,210 -306,296 -23,31 -45,58 -48,61 -18,14 -103,158 -148,248 -27,57 -50,104 -50,105 0,3 -8,27 -30,90 -19,51 -26,78 -47,172 -3,11 -7,36 -10,55 -2,19 -7,46 -10,60 -2,14 -7,61 -10,105 -2,44 -7,89 -9,100 -4,20 -12,20 -815,20 -713,0 -810,-2 -811,-15 -4,-36 11,-341 16,-350 2,-4 7,-29 10,-56 13,-114 41,-272 54,-306 4,-12 7,-31 6,-40 -2,-10 1,-18 6,-18 6,0 7,-4 4,-10 -3,-5 -3,-16 2,-22 4,-7 8,-17 9,-23 1,-5 8,-30 15,-55 7,-25 13,-47 14,-50 3,-14 17,-58 24,-75 5,-11 14,-38 20,-60 7,-22 16,-49 21,-60 5,-11 21,-51 35,-90 38,-99 118,-261 192,-390 74,-128 86,-148 93,-155 3,-3 11,-17 19,-32 8,-16 18,-28 23,-28 4,0 8,-4 8,-10 0,-8 115,-168 130,-180 3,-3 13,-14 21,-26 66,-96 356,-388 475,-479 23,-18 48,-37 55,-44 43,-36 63,-51 68,-51 3,0 18,-10 32,-23 27,-24 56,-43 79,-54 8,-4 17,-10 20,-13 17,-23 375,-228 410,-235 3,-1 28,-12 55,-25 28,-13 53,-23 58,-22 4,1 7,-2 7,-8 0,-5 8,-10 18,-10 10,0 36,-8 58,-19 61,-29 269,-97 379,-124 143,-36 158,-40 175,-42 8,-2 32,-6 54,-10 21,-4 50,-8 65,-10 14,-2 26,-4 26,-5 0,-1 14,-3 30,-5 17,-2 50,-6 75,-9 212,-27 614,-28 800,-2 14,2 48,7 75,10 28,4 68,11 89,16 22,5 44,7 48,4 4,-3 8,0 8,6 0,6 4,9 8,6 5,-3 47,4 93,15 46,11 91,22 99,24 8,1 33,8 55,14 22,6 42,10 45,10 3,-1 23,6 45,14 22,8 49,18 60,23 11,4 26,8 32,10 65,13 493,201 513,225 3,3 30,19 60,36 54,29 175,104 195,121 6,4 39,28 74,51 35,24 74,52 85,61 12,10 64,53 116,96 152,128 365,347 460,474 14,19 37,48 51,64 14,17 34,46 44,64 11,17 23,32 27,32 4,0 8,5 8,10 0,6 5,16 10,23 35,40 144,223 210,352 54,106 136,296 132,307 -1,5 2,8 6,8 5,0 9,6 9,13 0,6 12,44 26,82 23,62 57,173 63,200 1,6 7,30 15,55 7,25 14,54 16,65 2,11 8,36 13,55 5,19 12,50 15,68 3,17 8,47 11,65 3,17 7,43 9,57 7,57 16,127 20,155 15,98 18,489 18,2745 l 1,2495 -816,3 -816,2 v -1624 c 0,-894 -3,-1629 -6,-1634 -6,-10 -76,-9 -94,2 -7,4 -12,2 -12,-4 0,-6 -3,-9 -7,-7 -5,3 -53,8 -108,12 -102,7 -139,10 -210,21 -22,3 -51,7 -65,9 -14,2 -36,6 -50,9 -14,3 -38,8 -55,10 -27,4 -91,17 -150,30 -49,10 -81,19 -90,24 -5,4 -16,7 -25,8 -37,6 -136,37 -149,47 -8,7 -15,10 -15,8 -1,-5 -96,25 -146,46 -19,8 -44,18 -55,23 -11,4 -53,22 -94,41 -40,19 -76,34 -80,34 -3,0 -10,3 -16,7 -5,3 -55,29 -110,58 -55,29 -102,56 -105,60 -3,3 -21,14 -41,23 -20,9 -42,23 -49,32 -7,8 -18,15 -24,15 -6,0 -35,18 -64,40 -29,22 -57,40 -62,40 -6,0 -10,4 -10,8 0,5 -12,15 -27,23 -15,8 -35,21 -44,29 -9,8 -29,24 -43,35 -132,100 -360,318 -475,455 -35,41 -73,86 -84,99 -11,14 -30,39 -41,55 -12,17 -39,56 -62,86 -36,49 -62,89 -142,218 -13,20 -25,45 -29,55 -3,9 -10,17 -15,17 -5,0 -7,4 -3,9 3,5 1,12 -4,15 -22,14 -210,426 -194,426 3,0 1,6 -5,13 -9,11 -78,216 -86,255 -1,9 -6,24 -9,32 -5,14 -25,99 -31,131 -1,8 -5,23 -8,34 -4,11 -9,42 -13,69 -3,27 -8,53 -11,57 -3,5 -7,28 -9,51 -2,24 -7,59 -10,78 -14,100 -22,199 -24,328 l -1,92 h -815 c -448,0 -816,-3 -816,-7 z"
       id="path8"
       inkscape:connector-curvature="0" />
  </g>
</svg>
