<?xml version="1.0" encoding="utf-8"?>
<!-- Generator: Adobe Illustrator 23.0.2, SVG Export Plug-In . SVG Version: 6.00 Build 0)  -->
<svg version="1.1" xmlns="http://www.w3.org/2000/svg" xmlns:xlink="http://www.w3.org/1999/xlink" x="0px" y="0px"
	 viewBox="0 0 432.32 211.4" style="enable-background:new 0 0 432.32 211.4;" xml:space="preserve">
<style type="text/css">
	.st0{fill:#F5E8E4;}
	.st1{fill:#EBD2C6;}
	.st2{fill:#E8CEBE;}
	.st3{fill:#010202;}
	.st4{display:none;}
</style>
<g id="Tausta">
</g>
<g id="Elementit">
	<path class="st3" d="M119.42,70.07c-0.1-9.28-2.8-18.35-7.8-26.17c-0.86-1.33-1.78-2.66-2.76-3.89
		C91.9,18.28,60.54,14.42,38.82,31.37c-0.78,0.61-1.54,1.24-2.29,1.9c-2.31,2.05-4.43,4.3-6.34,6.74c-1.16,1.48-2.23,3.02-3.22,4.62
		c-0.89,1.46-1.71,2.96-2.47,4.53c-0.64,1.33-1.24,2.74-1.75,4.16c-1.6,4.3-2.6,8.79-2.96,13.37c-0.11,1.33-0.16,2.66-0.16,3.98
		c-0.01,6.83,1.39,13.59,4.12,19.86c0.48,1.12,1.01,2.21,1.57,3.28l0,0c0.51,0.96,1.04,1.92,1.61,2.84l0,0
		c0.45,0.74,0.89,1.45,1.33,2.15c0.48,0.69,0.96,1.33,1.46,2.02l0.47,0.61c0.41,0.52,0.82,1.02,1.26,1.53l0.2,0.25
		c1.68,1.95,3.51,3.77,5.48,5.43l0,0c0.86,0.74,1.77,1.46,2.66,2.14l0.36,0.26c0.57,0.43,1.16,0.83,1.75,1.22l0,0
		c0.66,0.44,1.34,0.89,2.03,1.33l0.84,0.49l0,0c0.76,0.44,1.53,0.85,2.31,1.23c0.88,0.44,1.77,0.86,2.66,1.25
		c12.57,5.38,26.79,5.38,39.36,0c0.88-0.37,1.74-0.78,2.66-1.21c0.92-0.43,1.55-0.8,2.31-1.22l0,0l0.46-0.28
		c0.82-0.47,1.62-0.97,2.42-1.49l1.81-1.25l0.32-0.24c0.96-0.7,1.89-1.45,2.79-2.22l0,0c1.95-1.66,3.76-3.47,5.43-5.41l0.21-0.25
		c0.44-0.5,0.86-1.03,1.33-1.57l0,0c0.23-0.27,0.46-0.56,0.68-0.88c0.41-0.56,0.82-1.13,1.22-1.7c0.4-0.57,0.94-1.42,1.33-2.14l0,0
		c0.56-0.92,1.1-1.86,1.61-2.83l0,0c0.24-0.47,0.49-0.94,0.72-1.44c0.23-0.49,0.59-1.22,0.85-1.83c2.73-6.29,4.14-13.07,4.13-19.93
		L119.42,70.07z M93.15,108.55c-0.44,0.28-0.89,0.54-1.33,0.8c-0.59-0.11-1.18-0.17-1.78-0.16c-1.79-0.04-3.53,0.52-4.97,1.58
		c-0.44,0.32-0.84,0.65-1.21,0.96l-0.4,0.33c-1,0.96-2.34,1.49-3.72,1.46c-1.56,0-3.05-0.65-4.12-1.79
		c-1.64-1.63-3.85-2.54-6.16-2.54c-2.07-0.04-4.07,0.71-5.62,2.07l-0.56,0.47l-0.9,0.73c-0.91,0.73-2.05,1.1-3.21,1.06
		c-1.57,0-3.06-0.65-4.13-1.79c-1.64-1.63-3.86-2.54-6.17-2.54c-0.56,0-1.12,0.04-1.67,0.14l-1.33-0.84
		c-0.45-0.28-0.89-0.57-1.33-0.86c-0.17-0.11-0.33-0.23-0.49-0.35c-0.11-0.06-0.21-0.13-0.31-0.21l0.31-0.23l0.46-0.38l0,0l0.23-0.2
		l0,0c1.05-1.12,2.52-1.76,4.07-1.75c0.23-0.01,0.45-0.01,0.68,0c0.29,0.03,0.57,0.08,0.85,0.16c0.95,0.3,1.82,0.8,2.54,1.49
		l0.12,0.09l0.9,0.74c2.7,2.09,6.39,2.39,9.39,0.77c0.75-0.44,1.45-0.95,2.1-1.53c0.4-0.33,0.77-0.64,1.16-0.9
		c0.87-0.61,1.91-0.92,2.98-0.89c1.51-0.01,2.95,0.61,3.99,1.7l0.13,0.09l0.9,0.74c2.99,2.32,7.14,2.41,10.23,0.23
		c0.44-0.32,0.84-0.65,1.21-0.97c0.42-0.38,0.86-0.72,1.33-1.04c0.82-0.53,1.78-0.79,2.75-0.76c0.82-0.02,1.63,0.16,2.36,0.53
		c0.63,0.38,1.22,0.82,1.75,1.33l0.41,0.34c0.23,0.19,0.45,0.37,0.69,0.54l-0.69,0.48H94.5C94.04,107.97,93.6,108.25,93.15,108.55z
		 M71.17,115.32c-0.55,0-1.09,0-1.63,0c-0.6,0-1.18,0-1.78,0c-1.19-0.05-2.36-0.15-3.51-0.28c0.36-0.26,0.69-0.55,1.01-0.81
		l0.13-0.11l0.21-0.19l0,0c1.03-1.03,2.43-1.61,3.89-1.59c1.11-0.03,2.19,0.3,3.08,0.96c0.35,0.25,0.68,0.53,1.04,0.84
		c0.36,0.31,0.56,0.48,0.88,0.72l0.23,0.17C73.53,115.19,72.35,115.28,71.17,115.32z M97.18,104.57c-0.32-0.23-0.63-0.49-0.96-0.77
		l0,0l-0.68-0.56c-0.3-0.24-0.62-0.48-0.97-0.7l-0.32-0.2c-0.59-0.33-1.22-0.6-1.87-0.78c-0.76-0.21-1.55-0.31-2.34-0.3h-0.29
		c-0.69,0.02-1.38,0.12-2.05,0.29l0,0c-0.34,0.09-0.67,0.2-0.98,0.34c-0.77,0.34-1.48,0.79-2.13,1.33l0,0l-0.68,0.56l0,0
		c-0.4,0.38-0.82,0.73-1.26,1.05c-0.84,0.57-1.85,0.86-2.87,0.83c-0.86,0-1.7-0.21-2.44-0.64c-0.59-0.35-1.15-0.75-1.66-1.21l0,0
		l-0.68-0.56l-0.4-0.32c-0.47-0.35-0.97-0.65-1.5-0.9c-0.41-0.18-0.82-0.34-1.25-0.47l0,0h-0.28l0,0c-1.45-0.36-2.96-0.36-4.41,0
		h-0.16l0,0c-1.08,0.34-2.07,0.89-2.93,1.62l0,0l-0.65,0.54l0,0l-0.69,0.57c-0.95,0.82-2.17,1.26-3.43,1.22
		c-0.86,0.03-1.71-0.17-2.47-0.58c-0.59-0.35-1.14-0.75-1.65-1.21l0,0l-0.68-0.56c-0.79-0.66-1.69-1.17-2.66-1.52l0,0
		c-0.16,0-0.32-0.1-0.49-0.16l0,0c-0.76-0.21-1.55-0.31-2.34-0.3h-0.13c-0.75,0.01-1.49,0.1-2.22,0.29
		c-0.43,0.13-0.85,0.29-1.26,0.48c-0.43,0.21-0.84,0.45-1.24,0.72l-0.65,0.49l-0.68,0.56l0,0c-0.51,0.45-1.05,0.86-1.63,1.21
		l-0.74-0.64c-0.42-0.37-0.85-0.74-1.25-1.13l-0.09-0.08c-0.85-0.81-1.67-1.66-2.47-2.54c0.68,0.16,1.37,0.24,2.07,0.24
		c1.84,0.03,3.63-0.56,5.09-1.67l0.23-0.17l0.13-0.1l0.73-0.6c0.33-0.28,0.64-0.53,0.96-0.77c0.87-0.67,1.93-1.03,3.03-1.03h0.13
		c1-0.03,1.98,0.24,2.82,0.79l0,0c0.43,0.29,0.84,0.61,1.24,0.96l0.88,0.72c0.74,0.57,1.57,1.02,2.46,1.33
		c0.91,0.31,1.87,0.47,2.84,0.46h0.19c1.63,0,3.23-0.5,4.57-1.43c0.48-0.29,0.94-0.61,1.38-0.94c0.5-0.45,1.04-0.85,1.62-1.2
		c0.77-0.41,1.64-0.62,2.51-0.6c0.71-0.01,1.41,0.12,2.06,0.39c0.31,0.13,0.61,0.3,0.89,0.49c0.4,0.28,0.8,0.59,1.17,0.92
		c0.27,0.24,0.56,0.48,0.88,0.72l0.09,0.08c1,0.78,2.16,1.32,3.4,1.58c0.25,0,0.52,0.09,0.78,0.12h0.38h0.63
		c2.07,0.03,4.08-0.72,5.63-2.09l0.54-0.46l0.13-0.11l0.66-0.54c0.85-0.7,1.92-1.1,3.03-1.13h0.29c1.56,0,3.05,0.65,4.12,1.79
		l0.41,0.35c1.56,1.44,3.6,2.23,5.71,2.22c0.76,0.01,1.51-0.07,2.25-0.25c-0.8,0.89-1.65,1.75-2.51,2.58l-0.08,0.08
		c-0.42,0.39-0.84,0.77-1.33,1.14l-0.77,0.66l0,0C97.64,104.91,97.4,104.75,97.18,104.57z M107.55,93.88
		c-0.89,0.36-1.72,0.86-2.46,1.48c-0.23,0.17-0.44,0.36-0.64,0.53l-0.65,0.53c-0.96,0.84-2.19,1.29-3.47,1.26
		c-1.31,0.02-2.58-0.45-3.55-1.33l-0.57-0.48l-0.38-0.35c-0.42-0.34-0.87-0.66-1.33-0.94c-1.34-0.89-2.92-1.35-4.53-1.33h-0.29
		c-1.04,0.01-2.07,0.22-3.03,0.62c-0.67,0.3-1.31,0.68-1.89,1.13c-0.35,0.27-0.66,0.53-0.97,0.78l-0.4,0.33
		c-0.41,0.35-0.85,0.66-1.33,0.91c-0.74,0.38-1.57,0.57-2.4,0.55c-0.21,0.01-0.42,0.01-0.63,0c-1.33-0.17-2.56-0.79-3.49-1.75
		c-0.33-0.29-0.69-0.58-1.08-0.88c-0.9-0.69-1.93-1.18-3.03-1.43c-1.51-0.35-3.08-0.32-4.57,0.1c-1.11,0.35-2.14,0.92-3.03,1.66
		l-0.09,0.08l-0.54,0.46l-0.78,0.64c-0.88,0.73-2,1.14-3.15,1.14h-0.19c-1.01,0.03-2-0.25-2.84-0.8c-0.46-0.31-0.9-0.64-1.33-1
		c-0.95-0.9-2.07-1.6-3.28-2.07c-0.92-0.33-1.9-0.49-2.88-0.48h-0.13c-1.69,0-3.34,0.52-4.72,1.5c-0.36,0.25-0.69,0.52-1,0.77
		l-0.33,0.28L42.35,96c-2.14,2.17-5.63,2.19-7.8,0.05c-0.02-0.02-0.04-0.04-0.06-0.05l-0.16-0.12l-0.25-0.23
		c-0.8-0.7-1.69-1.28-2.66-1.71l0,0c-0.82-1.34-1.57-2.73-2.23-4.16c0.75,0.05,1.5,0.17,2.23,0.37c1.98,0.57,3.8,1.59,5.31,2.99
		c1.06,0.89,1.14,0.94,1.78,0.94c0.64,0,0.72,0,1.78-0.94c1.09-0.99,2.33-1.8,3.67-2.42V55.13c-0.01-1-0.82-1.81-1.82-1.81h-5.62
		v-4.56h6.08c2.77,0.01,5.19,1.88,5.91,4.56c0.13,0.49,0.2,1,0.2,1.51v34.87h0.13c0.97,0,1.94,0.1,2.88,0.32V54.7
		c0.01-0.06,0.01-0.12,0-0.17c-0.01-0.41-0.06-0.81-0.13-1.21c-0.29-1.69-1.04-3.27-2.17-4.56h0.81c2.74,0.06,5.11,1.91,5.83,4.56
		c0.14,0.49,0.21,1,0.21,1.51v37.42c0.4,0.29,0.76,0.58,1.06,0.85c1.06,0.89,1.14,0.94,1.78,0.94h0.19V54.7
		c0.01-0.06,0.01-0.12,0-0.17c-0.02-0.41-0.06-0.81-0.13-1.21c-0.31-1.7-1.1-3.28-2.26-4.56h0.82c2.77,0.03,5.19,1.89,5.94,4.56
		c0.14,0.49,0.21,1,0.21,1.51v36.18c0.96-0.49,1.98-0.85,3.03-1.06V54.7c0.01-0.06,0.01-0.12,0-0.19c-0.02-0.4-0.07-0.8-0.15-1.2
		c-0.31-1.7-1.1-3.28-2.26-4.56h0.85c2.77,0.03,5.19,1.89,5.95,4.56c0.14,0.49,0.21,1,0.23,1.51v35.03
		c1.05,0.17,2.07,0.48,3.03,0.93V54.7c0-0.07,0-0.13,0-0.2c-0.03-0.4-0.08-0.79-0.15-1.18c-0.33-1.7-1.12-3.28-2.28-4.56h0.82
		c2.77,0.03,5.2,1.89,5.95,4.56c0.15,0.49,0.23,1,0.24,1.51v39.12c0.2,0.08,0.41,0.11,0.63,0.1c0.64,0,0.72,0,1.78-0.94l0.63-0.52
		V54.7c0-0.07,0-0.15,0-0.21c-0.03-0.39-0.08-0.78-0.15-1.17c-0.31-1.7-1.09-3.28-2.25-4.56h0.74c3.37,0.03,6.12,2.7,6.23,6.07
		v35.38c0.99-0.27,2-0.42,3.03-0.44V54.7c0.01-0.08,0.01-0.16,0-0.24c-0.03-0.38-0.08-0.76-0.15-1.14c-0.46-2.38-1.82-4.5-3.8-5.9
		c-1.55-1.1-3.41-1.69-5.31-1.67H36.53v-5.82h65.79v13.39h-5.92c-0.98,0.02-1.77,0.82-1.78,1.81v35.43
		c1.46,0.63,2.81,1.49,3.99,2.55c1.06,0.89,1.14,0.94,1.78,0.94c0.64,0,0.72,0,1.78-0.94c1.54-1.43,3.4-2.47,5.43-3.03
		c0.73-0.18,1.48-0.3,2.23-0.35c-0.66,1.42-1.41,2.8-2.22,4.13L107.55,93.88z"/>
	<path class="st3" d="M43.11,181.88c-0.48-0.16-0.97-0.25-1.47-0.27c-0.4-0.02-0.79,0.07-1.13,0.27c-0.26,0.15-0.42,0.44-0.41,0.74
		c-0.01,0.27,0.1,0.53,0.29,0.72c0.21,0.21,0.46,0.37,0.73,0.48c0.39,0.17,0.79,0.3,1.2,0.41c0.59,0.17,1.17,0.38,1.73,0.63
		c0.45,0.21,0.84,0.52,1.14,0.92c0.34,0.47,0.51,1.03,0.48,1.61c0.01,0.59-0.17,1.17-0.5,1.66c-0.37,0.48-0.86,0.86-1.42,1.08
		c-0.65,0.25-1.35,0.38-2.05,0.37c-0.81,0-1.62-0.16-2.38-0.45c-0.74-0.28-1.42-0.69-2.02-1.21l0.82-1.7
		c0.52,0.48,1.12,0.87,1.77,1.14c0.58,0.26,1.2,0.4,1.83,0.41c0.47,0.03,0.93-0.08,1.33-0.32c0.3-0.18,0.49-0.51,0.48-0.86
		c0.01-0.27-0.09-0.54-0.29-0.73c-0.21-0.21-0.46-0.37-0.73-0.48c-0.31-0.12-0.7-0.25-1.22-0.4c-0.59-0.16-1.17-0.37-1.73-0.61
		c-0.45-0.2-0.84-0.51-1.14-0.89c-0.33-0.46-0.5-1.02-0.46-1.58c-0.01-0.56,0.15-1.12,0.48-1.58c0.33-0.47,0.79-0.84,1.33-1.05
		c0.65-0.26,1.35-0.39,2.05-0.37c0.67,0,1.35,0.1,1.99,0.29c0.62,0.18,1.21,0.46,1.75,0.81l-0.8,1.73
		C44.23,182.32,43.68,182.07,43.11,181.88z"/>
	<path class="st3" d="M47.51,180.02h8.48v1.77h-3.23v8.64h-1.98v-8.64h-3.27V180.02z"/>
	<path class="st3" d="M61,188.07c0.5,0.48,1.18,0.73,1.87,0.7c0.69,0.04,1.36-0.22,1.85-0.7c0.47-0.53,0.72-1.22,0.68-1.93v-6.13
		h1.99v6.13c0.02,0.83-0.16,1.64-0.54,2.38c-0.36,0.66-0.91,1.19-1.57,1.54c-0.75,0.37-1.57,0.55-2.4,0.53
		c-0.84,0.02-1.68-0.16-2.43-0.53c-0.67-0.35-1.22-0.88-1.58-1.54c-0.38-0.72-0.56-1.53-0.54-2.35v-6.15h1.99v6.13
		C60.28,186.85,60.52,187.55,61,188.07z"/>
	<path class="st3" d="M77.97,180.68c0.81,0.42,1.48,1.06,1.94,1.85c0.46,0.81,0.7,1.72,0.69,2.66c0.01,0.93-0.23,1.85-0.7,2.66
		c-0.46,0.79-1.14,1.44-1.95,1.86c-0.88,0.45-1.85,0.68-2.84,0.67h-4.24v-10.35h4.32C76.15,180.01,77.11,180.23,77.97,180.68z
		 M76.93,188.23c0.51-0.29,0.92-0.71,1.2-1.22c0.59-1.11,0.59-2.45,0-3.56c-0.28-0.52-0.71-0.95-1.22-1.23
		c-0.53-0.29-1.13-0.45-1.74-0.44h-2.33v6.9h2.38C75.82,188.68,76.41,188.53,76.93,188.23z"/>
	<path class="st3" d="M83.46,180.02h7.61v1.74h-5.62v2.57h5.05v1.74h-5.05v2.66h5.8v1.74h-7.8V180.02z"/>
	<path class="st3" d="M101.63,180.02h1.94v10.4h-1.89l-5.31-7.16v7.16h-1.98v-10.4h1.89l5.31,7.17L101.63,180.02z"/>
	<path class="st3" d="M106.08,180.02h8.46v1.77h-3.23v8.64h-2v-8.64h-3.23V180.02z"/>
	<path class="st3" d="M124.33,188.07c0.5,0.48,1.18,0.73,1.87,0.7c0.69,0.04,1.36-0.22,1.85-0.7c0.47-0.53,0.72-1.22,0.68-1.93
		v-6.13h1.99v6.13c0.02,0.82-0.17,1.63-0.56,2.35c-0.35,0.66-0.9,1.2-1.57,1.54c-0.74,0.37-1.56,0.55-2.39,0.53
		c-0.84,0.02-1.68-0.16-2.43-0.53c-0.67-0.33-1.22-0.86-1.58-1.52c-0.39-0.72-0.58-1.53-0.56-2.35v-6.15h1.99v6.13
		C123.6,186.85,123.85,187.55,124.33,188.07z"/>
	<path class="st3" d="M141.43,180.02h1.93v10.4h-1.89l-5.31-7.16v7.16h-1.98v-10.4h1.89l5.31,7.17L141.43,180.02z"/>
	<path class="st3" d="M147.02,180.02h2.06v10.4h-1.99L147.02,180.02z"/>
	<path class="st3" d="M160.23,180.55c2.57,1.42,3.5,4.66,2.08,7.22c-0.48,0.87-1.2,1.59-2.08,2.08c-1.76,0.96-3.88,0.96-5.63,0
		c-2.57-1.42-3.5-4.65-2.08-7.22c0.48-0.87,1.2-1.59,2.08-2.08C156.36,179.61,158.47,179.61,160.23,180.55z M155.72,182.13
		c-0.55,0.31-1.01,0.77-1.33,1.33c-0.32,0.54-0.49,1.16-0.48,1.78c-0.01,0.64,0.16,1.26,0.48,1.81c0.32,0.55,0.78,1.01,1.33,1.33
		c1.08,0.64,2.42,0.64,3.49,0c1.1-0.64,1.76-1.83,1.74-3.1c0.01-0.62-0.16-1.24-0.46-1.78c-0.32-0.55-0.78-1.01-1.33-1.33
		c-0.53-0.31-1.13-0.47-1.74-0.46C156.83,181.7,156.25,181.85,155.72,182.13z"/>
	<path class="st3" d="M173.06,180.02H175v10.4h-1.89l-5.31-7.16v7.16h-1.98v-10.4h1.86l5.31,7.17L173.06,180.02z"/>
	<path class="st3" d="M190.96,180.55c2.57,1.42,3.5,4.66,2.08,7.22c-0.48,0.87-1.2,1.59-2.08,2.08c-1.76,0.96-3.88,0.96-5.63,0
		c-0.83-0.45-1.52-1.13-1.99-1.94c-0.99-1.67-0.99-3.74,0-5.41c0.48-0.8,1.17-1.47,1.99-1.91c1.76-0.94,3.87-0.94,5.63,0V180.55z
		 M186.4,182.09c-0.55,0.32-1.01,0.77-1.33,1.33c-0.65,1.11-0.65,2.48,0,3.59c0.31,0.56,0.77,1.02,1.33,1.33
		c0.53,0.32,1.14,0.48,1.75,0.48c0.61,0,1.21-0.16,1.74-0.48c0.56-0.31,1.02-0.77,1.33-1.33c0.31-0.55,0.47-1.17,0.46-1.81
		c0.01-1.26-0.65-2.43-1.74-3.07c-0.53-0.31-1.13-0.47-1.74-0.47c-0.63-0.01-1.26,0.15-1.81,0.47V182.09z"/>
	<path class="st3" d="M196.55,180.02h7.17v1.74h-5.17v2.78h4.7v1.74h-4.7v4.12h-1.99L196.55,180.02z"/>
	<path class="st3" d="M209.92,180.02h8.49v1.77h-3.24v8.64h-2.01v-8.64h-3.24V180.02z"/>
	<path class="st3" d="M227.57,190.42l-0.93-2.21h-5.08l-0.92,2.21h-2.07l4.57-10.4h2.06l4.5,10.4H227.57z M222.26,186.51h3.65
		l-1.82-4.37L222.26,186.51z"/>
	<path class="st3" d="M232.09,180.02h2.27l3.44,6.64l3.41-6.64h2.27v10.4h-1.82v-7.45l-3.24,6.38h-1.33l-3.26-6.38v7.45h-1.81
		L232.09,180.02z"/>
	<path class="st3" d="M254.46,180.96c0.74,0.68,1.14,1.65,1.08,2.66c0.06,1.03-0.33,2.04-1.08,2.76c-0.85,0.71-1.94,1.06-3.04,0.98
		h-2.27v3.07h-1.99v-10.42h4.23C252.49,179.94,253.58,180.28,254.46,180.96z M253.05,185.12c0.42-0.37,0.64-0.91,0.6-1.46
		c0.04-0.54-0.18-1.07-0.6-1.42c-0.5-0.35-1.11-0.52-1.73-0.48h-2.18v3.85h2.23C251.97,185.64,252.56,185.46,253.05,185.12
		L253.05,185.12z"/>
	<path class="st3" d="M258.3,180.02h7.69v1.74h-5.63v2.57h5.05v1.74h-5.05v2.66h5.81v1.74h-7.8L258.3,180.02z"/>
	<path class="st3" d="M275.74,190.42l-1.78-3.08h-2.66v3.07h-1.99v-10.39h4.34c1.12-0.07,2.22,0.27,3.11,0.94
		c0.76,0.67,1.16,1.65,1.1,2.66c0.02,0.73-0.16,1.45-0.53,2.07c-0.35,0.6-0.89,1.06-1.53,1.33l2.29,3.45L275.74,190.42z
		 M271.23,185.61h2.35c0.61,0.04,1.22-0.13,1.71-0.49c0.42-0.37,0.64-0.91,0.6-1.46c0.04-0.54-0.18-1.07-0.6-1.42
		c-0.5-0.35-1.11-0.52-1.71-0.48h-2.35V185.61z"/>
	<path class="st3" d="M281.08,180.02h7.63v1.74h-5.63v2.57h5.05v1.74h-5.05v2.66h5.81v1.74h-7.8V180.02z"/>
	<path class="st3" d="M299.27,188.07c0.5,0.48,1.18,0.73,1.87,0.7c0.69,0.04,1.36-0.22,1.85-0.7c0.47-0.53,0.72-1.22,0.68-1.93
		v-6.13h1.99v6.13c0.02,0.82-0.17,1.63-0.56,2.35c-0.36,0.66-0.9,1.2-1.57,1.54c-0.74,0.37-1.56,0.55-2.39,0.53
		c-0.84,0.02-1.67-0.16-2.43-0.53c-0.67-0.34-1.22-0.88-1.58-1.54c-0.39-0.72-0.58-1.53-0.56-2.35v-6.13h1.99v6.13
		C298.53,186.85,298.79,187.55,299.27,188.07z"/>
	<path class="st3" d="M316.37,180.02h1.93v10.4h-1.82l-5.31-7.16v7.16h-1.95v-10.4h1.89l5.31,7.17L316.37,180.02z"/>
	<path class="st3" d="M321.96,180.02h1.99v10.4h-1.99V180.02z"/>
	<path class="st3" d="M326.37,180.02h2.14l3.07,8.18l3.08-8.18h2.06l-4.16,10.4h-2.07L326.37,180.02z"/>
	<path class="st3" d="M339.15,180.02h7.63v1.74h-5.63v2.57h5.05v1.74h-5.05v2.66h5.8v1.74h-7.8V180.02z"/>
	<path class="st3" d="M356.59,190.42l-1.81-3.08h-2.66v3.07h-1.99v-10.39h4.34c1.12-0.07,2.22,0.27,3.11,0.94
		c0.76,0.67,1.16,1.65,1.1,2.66c0.02,0.73-0.16,1.45-0.53,2.07c-0.35,0.6-0.89,1.06-1.53,1.33l2.28,3.45L356.59,190.42z
		 M352.08,185.61h2.35c0.61,0.04,1.22-0.13,1.71-0.49c0.42-0.37,0.64-0.91,0.6-1.46c0.04-0.54-0.18-1.07-0.6-1.42
		c-0.5-0.35-1.1-0.52-1.71-0.48h-2.35V185.61z"/>
	<path class="st3" d="M366.84,181.88c-0.48-0.16-0.98-0.25-1.49-0.27c-0.39-0.02-0.78,0.08-1.13,0.27
		c-0.26,0.15-0.42,0.44-0.41,0.74c-0.01,0.27,0.1,0.53,0.29,0.72c0.21,0.21,0.46,0.37,0.73,0.48c0.39,0.17,0.79,0.3,1.2,0.41
		c0.59,0.17,1.17,0.38,1.73,0.63c0.45,0.21,0.85,0.53,1.16,0.92c0.32,0.47,0.49,1.03,0.46,1.61c0.02,0.59-0.16,1.18-0.51,1.66
		c-0.36,0.48-0.85,0.85-1.41,1.08c-0.66,0.25-1.36,0.38-2.06,0.37c-0.81,0-1.62-0.16-2.38-0.45c-0.74-0.28-1.42-0.69-2.02-1.21
		l0.82-1.7c0.52,0.48,1.12,0.87,1.77,1.14c0.58,0.26,1.2,0.4,1.83,0.41c0.46,0.03,0.93-0.08,1.33-0.32c0.3-0.18,0.48-0.51,0.48-0.86
		c0.01-0.27-0.09-0.54-0.29-0.73c-0.21-0.21-0.46-0.37-0.73-0.48c-0.4-0.15-0.81-0.29-1.22-0.4c-0.59-0.16-1.16-0.36-1.71-0.61
		c-0.45-0.2-0.84-0.5-1.14-0.89c-0.34-0.46-0.51-1.01-0.48-1.58c-0.01-0.56,0.15-1.12,0.48-1.58c0.33-0.47,0.79-0.83,1.33-1.05
		c0.65-0.26,1.35-0.39,2.05-0.37c0.67,0,1.35,0.1,1.99,0.29c0.63,0.18,1.22,0.46,1.77,0.81l-0.81,1.73
		C367.95,182.33,367.4,182.07,366.84,181.88z"/>
	<path class="st3" d="M372.38,180.02h1.99v10.4h-1.99V180.02z"/>
	<path class="st3" d="M376.88,180.02h8.48v1.77h-3.23v8.64h-2.01v-8.64h-3.24V180.02z"/>
	<path class="st3" d="M396.25,180.02l-3.79,7v3.4h-1.99v-3.34l-3.88-7.07h2.02l2.84,4.89l2.79-4.89H396.25z"/>
	<path class="st3" d="M34.59,150.39h12.09v3.51H42.8v9.93h-4.4v-9.93h-3.81V150.39z"/>
	<path class="st3" d="M57.93,163.82l-0.66-1.89h-5.05l-0.69,1.89h-4.56l5.67-13.43h4.56l5.53,13.43H57.93z M53.43,158.75h2.79
		l-1.33-3.99L53.43,158.75z"/>
	<path class="st3" d="M65.39,150.39h4.72l3.25,7.02l3.32-7.02h4.72v13.43h-3.85v-7.36l-2.66,6.06h-2.94l-2.66-6.06v7.36h-3.91
		V150.39z"/>
	<path class="st3" d="M95.64,151.65c0.99,0.91,1.51,2.21,1.43,3.55c0.08,1.41-0.44,2.79-1.43,3.79c-1.13,0.96-2.59,1.43-4.06,1.33
		h-1.86v3.48h-4.4v-13.4h6.31C93.07,150.31,94.5,150.76,95.64,151.65z M92.46,156.53c0.29-0.33,0.43-0.76,0.4-1.19
		c0.03-0.42-0.12-0.84-0.4-1.16c-0.3-0.29-0.7-0.44-1.12-0.41h-1.63v3.2h1.63C91.76,156.99,92.17,156.83,92.46,156.53z"/>
	<path class="st3" d="M100.33,150.39h11.37v3.38h-6.92v1.65h6.28v3.38h-6.28v1.67h7.11v3.36h-11.56V150.39z"/>
	<path class="st3" d="M123.2,163.82l-1.62-3.48h-1.66v3.48h-4.45v-13.43h6.5c1.53-0.08,3.03,0.4,4.24,1.33
		c1.02,0.89,1.57,2.2,1.5,3.55c0.02,0.88-0.17,1.75-0.56,2.54c-0.35,0.72-0.9,1.32-1.58,1.73l2.66,4.36L123.2,163.82z
		 M119.92,156.97h2.05c0.42,0.03,0.83-0.14,1.13-0.44c0.27-0.33,0.41-0.76,0.38-1.19c0.02-0.42-0.11-0.83-0.38-1.16
		c-0.3-0.29-0.71-0.44-1.13-0.41h-2.05V156.97z"/>
	<path class="st3" d="M131.28,150.39h11.37v3.38h-6.85v1.65h6.28v3.38h-6.28v1.67h7.09v3.36h-11.61V150.39z"/>
	<path class="st3" d="M146.42,150.39h11.37v3.38h-6.92v1.65h6.28v3.38h-6.28v1.67h7.1v3.36h-11.55V150.39z"/>
	<path class="st3" d="M170.59,150.39h3.99v13.43h-3.72l-5.31-6.86v6.86h-3.99v-13.43h3.72l5.31,6.9V150.39z"/>
	<path class="st3" d="M197.21,150.39l-4.81,9.3v4.17h-4.45v-4.08l-4.9-9.3h4.42l2.66,5.18l2.66-5.18L197.21,150.39z"/>
	<path class="st3" d="M199.9,150.39h4.45v9.74h5.59v3.69H199.9V150.39z"/>
	<path class="st3" d="M213.01,150.39h4.45v13.43h-4.45V150.39z"/>
	<path class="st3" d="M231.8,151c1.1,0.56,2.02,1.43,2.66,2.5c0.64,1.08,0.97,2.33,0.96,3.59c0.02,1.27-0.31,2.52-0.96,3.61
		c-0.63,1.07-1.55,1.95-2.66,2.52c-1.17,0.62-2.48,0.94-3.8,0.92c-1.32,0.02-2.62-0.29-3.79-0.92c-1.1-0.58-2.02-1.45-2.66-2.52
		c-1.26-2.25-1.26-4.98,0-7.23c0.64-1.06,1.56-1.91,2.66-2.47c1.17-0.61,2.47-0.92,3.79-0.91C229.32,150.08,230.62,150.39,231.8,151
		z M226.63,154.23c-0.44,0.3-0.8,0.71-1.05,1.18c-0.27,0.52-0.41,1.1-0.4,1.69c-0.01,0.59,0.13,1.17,0.4,1.7
		c0.24,0.48,0.6,0.89,1.05,1.19c0.42,0.29,0.92,0.44,1.43,0.44c0.5,0,0.98-0.15,1.4-0.43c0.44-0.3,0.78-0.72,1-1.21
		c0.48-1.08,0.48-2.32,0-3.4c-0.22-0.47-0.56-0.88-1-1.17c-0.41-0.28-0.9-0.43-1.4-0.42C227.55,153.81,227.05,153.96,226.63,154.23z
		"/>
	<path class="st3" d="M248.91,151.65c0.99,0.91,1.51,2.21,1.43,3.55c0.08,1.41-0.44,2.79-1.43,3.79c-1.13,0.96-2.59,1.43-4.07,1.33
		h-1.85v3.48h-4.45v-13.4h6.3C246.31,150.3,247.75,150.75,248.91,151.65z M245.74,156.53c0.27-0.33,0.41-0.76,0.38-1.19
		c0.02-0.42-0.12-0.83-0.38-1.16c-0.3-0.29-0.71-0.44-1.13-0.41h-1.62v3.2h1.62C245.04,157,245.45,156.83,245.74,156.53z"/>
	<path class="st3" d="M263.97,151.65c0.99,0.91,1.51,2.21,1.44,3.55c0.08,1.41-0.44,2.79-1.44,3.79c-1.13,0.96-2.59,1.43-4.06,1.33
		h-1.89v3.48h-4.45v-13.4h6.3C261.34,150.29,262.81,150.74,263.97,151.65z M260.81,156.53c0.27-0.33,0.41-0.76,0.38-1.19
		c0.02-0.42-0.12-0.83-0.38-1.16c-0.3-0.29-0.71-0.44-1.13-0.41h-1.66v3.2h1.62C260.08,157.01,260.51,156.85,260.81,156.53
		L260.81,156.53z"/>
	<path class="st3" d="M268.65,150.39h4.45v13.43h-4.45V150.39z"/>
	<path class="st3" d="M276.95,150.39h4.45v9.74h5.59v3.69h-10.04V150.39z"/>
	<path class="st3" d="M299.88,163.82l-0.68-1.87h-5.03l-0.69,1.89h-4.57l5.67-13.43h4.62l5.46,13.43L299.88,163.82z M295.31,158.75
		h2.8l-1.33-3.99L295.31,158.75z"/>
	<path class="st3" d="M314.92,153.98c-0.69-0.28-1.43-0.44-2.18-0.48c-0.56,0-0.84,0.2-0.84,0.6c0.02,0.32,0.23,0.6,0.53,0.71
		c0.54,0.23,1.1,0.42,1.67,0.56c0.81,0.22,1.61,0.48,2.39,0.8c0.65,0.3,1.22,0.76,1.66,1.33c0.49,0.66,0.74,1.47,0.7,2.3
		c0.02,0.88-0.24,1.73-0.76,2.44c-0.53,0.67-1.23,1.18-2.03,1.46c-0.92,0.33-1.88,0.49-2.86,0.48c-1.22,0-2.44-0.2-3.6-0.59
		c-1.13-0.35-2.19-0.89-3.14-1.59l1.65-3.36c0.76,0.64,1.62,1.15,2.55,1.52c0.81,0.36,1.69,0.57,2.58,0.61
		c0.27,0.02,0.54-0.04,0.78-0.17c0.19-0.13,0.3-0.34,0.28-0.57c-0.01-0.33-0.23-0.62-0.54-0.72c-0.55-0.24-1.13-0.42-1.71-0.54
		c-0.81-0.19-1.6-0.45-2.37-0.76c-0.64-0.26-1.2-0.68-1.63-1.22c-0.49-0.63-0.74-1.41-0.69-2.21c-0.02-0.83,0.22-1.65,0.7-2.34
		c0.5-0.7,1.2-1.24,2.01-1.54c0.96-0.38,1.99-0.56,3.03-0.54c1.06,0,2.12,0.15,3.14,0.44c0.94,0.26,1.83,0.65,2.66,1.17l-1.61,3.4
		C316.54,154.69,315.75,154.3,314.92,153.98z"/>
	<path class="st3" d="M335.79,163.82h-5.31l-2.84-4.68l-1.26,1.42v3.26h-4.45v-13.43h4.45v4.92l3.99-4.9h5.13l-4.82,5.32
		L335.79,163.82z"/>
	<path class="st3" d="M343.49,159.83c0.34,0.38,0.82,0.6,1.33,0.61c0.51,0.02,1-0.2,1.33-0.6c0.36-0.45,0.54-1.01,0.52-1.58v-7.87
		h4.45v7.87c0.02,1.08-0.25,2.15-0.78,3.09c-0.52,0.88-1.28,1.6-2.19,2.06c-1.03,0.5-2.16,0.75-3.31,0.73
		c-1.16,0.02-2.3-0.23-3.35-0.73c-0.93-0.46-1.71-1.17-2.24-2.06c-0.54-0.94-0.82-2.01-0.8-3.09v-7.87h4.45v7.87
		C342.88,158.84,343.1,159.4,343.49,159.83z"/>
	<path class="st3" d="M363.81,150.39h3.99v13.43h-3.71l-5.31-6.86v6.86h-3.99v-13.43h3.72l5.31,6.9L363.81,150.39z"/>
	<path class="st3" d="M370.81,150.39h12.09v3.51h-3.84v9.93h-4.45v-9.93h-3.8V150.39z"/>
	<path class="st3" d="M394.15,163.82l-0.62-1.87h-5.05l-0.69,1.89h-4.56l5.67-13.43h4.56l5.38,13.42H394.15z M389.54,158.75h2.8
		l-1.33-3.99L389.54,158.75z"/>
	<path class="st3" d="M284.27,101.96l4.77-3.77l-0.16-0.24L284.27,101.96z"/>
	<path class="st3" d="M284.27,101.96l4.61-4.08c-2.95-4.64-5.43-9.57-7.41-14.71l-13.13,12.56c-2.06,1.95-4.76,3.09-7.6,3.21
		c-7.11,0-10.16-5.79-12.1-13.15l0,0l-0.4-1.86c10.04-3.85,16.11-13.28,16.11-24.47c0-14.61-9.42-27.41-26.57-27.41h-37.05v38.97
		h-8.52v14.77h8.52v29.66h18.35V85.79h11.04c0.96,8.82,7.03,30.98,26.81,30.98c8.57,0,13.1-2.87,18.6-7.15l0,0l8.69-7.69
		L284.27,101.96z M235.44,71.02h-16.35V47.54h16.35c6.56,0,10.49,4.77,10.49,11.79C245.93,66.37,241.96,71.02,235.44,71.02z"/>
	<polygon class="st3" points="197.8,32.1 133.41,32.1 133.41,47.59 156.88,47.59 156.88,115.49 175.11,115.49 175.11,47.59 
		197.8,47.59 	"/>
	<path class="st3" d="M359.66,82.11l-0.62-0.91l-0.57-0.85l-1.43-2.09c-0.64,0.72-1.33,1.42-1.94,2.13
		c-0.61,0.7-1.43,1.55-2.17,2.33c-6.64,7.01-13.86,13.29-23.43,15c-6.87,1.1-13.86-1-18.99-5.7c-2.07-1.88-3.94-3.98-5.58-6.24
		l-0.19-0.25l2.74-2.19l9.5-9.13l0.16-0.15c11.36-11.46,14.04-25.05,7.17-36.37c-7.73-12.97-24.51-17.25-37.5-9.55l0,0
		c-10.52,6.39-14.26,16.62-11.15,30.44l0.28,0.84l6.64,19.81c0,0,0,0.09,0.07,0.15c1.96,5.38,4.37,10.58,7.21,15.55
		c0.31,0.49,0.6,0.96,0.89,1.33l0.24,0.33l0,0h0.07c2.28,3.06,4.84,5.9,7.65,8.48c7.46,6.79,17.17,10.58,27.26,10.63
		c2.16-0.02,4.32-0.23,6.44-0.61c11.84-2.03,20.74-8.22,28.03-15.05V83.32l-0.42-0.63L359.66,82.11z M295.8,42.94L295.8,42.94
		c4.8-2.74,10.92-1.08,13.67,3.72c3.23,5.31-0.69,11.12-4.58,15.08l-7.58,7.28l-0.89-2.53l-2.34-6.64l-0.47-1.33
		C289.72,46.64,293.38,44.4,295.8,42.94z"/>
	<polygon class="st3" points="413.45,34.69 391.07,34.69 371.93,66.19 371.81,66.19 352.66,34.69 332.14,34.69 331.88,34.69 
		331.88,37.01 362.92,82.57 362.92,82.69 362.92,115.45 380.8,115.45 380.8,82.69 380.8,82.35 411.83,37.01 	"/>
</g>
<g id="Tekstit">
</g>
<g id="Guide" class="st4">
</g>
</svg>
